<?xml version="1.0" encoding="utf-8"?>
<!-- Generator: Adobe Illustrator 22.1.0, SVG Export Plug-In . SVG Version: 6.00 Build 0)  -->
<svg version="1.1" id="Layer_1" xmlns="http://www.w3.org/2000/svg" xmlns:xlink="http://www.w3.org/1999/xlink" x="0px" y="0px"
	 viewBox="0 0 126.5 12.5" style="enable-background:new 0 0 126.5 12.5;" xml:space="preserve">
<style type="text/css">
	.st0{fill:#FFFFFF;}
</style>
<g>
	<g>
		<g>
			<path class="st0" d="M6.5,12.3l-2-4H3.2v4H0V0.4h5.3c0.7,0,1.3,0.1,1.9,0.2S8.3,1,8.7,1.3C9.1,1.6,9.4,2,9.6,2.5
				C9.9,3,10,3.6,10,4.3c0,0.9-0.2,1.6-0.6,2.2C9,7,8.5,7.5,7.8,7.8l2.4,4.6L6.5,12.3L6.5,12.3z M6.4,3.4C6.2,3.2,5.8,3.1,5.2,3.1
				h-2v2.6h2c0.5,0,0.9-0.1,1.2-0.3c0.2-0.2,0.3-0.6,0.3-1C6.7,4,6.6,3.7,6.4,3.4z"/>
		</g>
		<g>
			<path class="st0" d="M12.2,12.3V0.4h9.1v2.8h-5.9v1.6H19v2.7h-3.5v2h6v2.8H12.2z"/>
		</g>
		<g>
			<path class="st0" d="M33.5,9.1c-0.3,0.8-0.7,1.4-1.2,1.9s-1.2,0.8-2,1s-1.7,0.3-2.8,0.3h-3.9V0.4h4.2c0.9,0,1.8,0.1,2.5,0.3
				c0.8,0.2,1.4,0.5,1.9,1c0.5,0.5,0.9,1.1,1.2,1.8s0.4,1.7,0.4,2.8C33.9,7.4,33.8,8.3,33.5,9.1z M30.4,4.9c-0.1-0.4-0.3-0.7-0.5-1
				c-0.2-0.2-0.5-0.4-0.9-0.6c-0.4-0.1-0.8-0.2-1.3-0.2h-0.8v6.3h0.7c0.5,0,0.9-0.1,1.3-0.2c0.4-0.1,0.7-0.3,0.9-0.5
				c0.2-0.2,0.4-0.6,0.5-1c0.1-0.4,0.2-0.9,0.2-1.5C30.5,5.8,30.5,5.3,30.4,4.9z"/>
		</g>
		<g>
			<path class="st0" d="M48,12.3V7.6h-3.7v4.7h-3.4V0.4h3.4v4.4H48V0.4h3.4v11.9H48z"/>
		</g>
		<g>
			<path class="st0" d="M61.5,12.3l-0.6-2.1h-3.6l-0.6,2.1h-3.5l4.3-11.9h3.3l4.3,11.9C65.1,12.3,61.5,12.3,61.5,12.3z M59.8,6.8
				c-0.1-0.4-0.2-0.7-0.3-1S59.3,5.3,59.3,5c-0.1-0.2-0.1-0.4-0.2-0.6C59.1,4.2,59,4,59,3.8c0,0.2-0.1,0.4-0.1,0.6S58.8,4.8,58.7,5
				c-0.1,0.2-0.1,0.5-0.2,0.8c-0.1,0.3-0.2,0.6-0.3,1L58,7.6h2L59.8,6.8z"/>
		</g>
		<g>
			<path class="st0" d="M71.3,3.3v9.1H68V3.3h-3.3V0.4h10v2.9H71.3z"/>
		</g>
	</g>
	<g>
		<path class="st0" d="M78.6,2c-0.1,0.1-0.1,0.3-0.3,0.4c-0.1,0.1-0.2,0.2-0.4,0.3c-0.1,0.1-0.3,0.1-0.5,0.1s-0.3,0-0.5-0.1
			c-0.1-0.1-0.3-0.1-0.4-0.3c-0.1-0.1-0.2-0.2-0.3-0.4c-0.1-0.1-0.1-0.3-0.1-0.5s0-0.3,0.1-0.5c0.1-0.1,0.1-0.3,0.3-0.4
			c0.1-0.1,0.2-0.2,0.4-0.3c0.1-0.1,0.3-0.1,0.5-0.1s0.3,0,0.5,0.1c0.1,0.1,0.3,0.1,0.4,0.3c0.1,0.1,0.2,0.2,0.3,0.4
			c0.1,0.1,0.1,0.3,0.1,0.5S78.6,1.9,78.6,2z M78.4,1.2c0-0.1-0.1-0.2-0.2-0.3S78,0.7,77.9,0.7c-0.1,0-0.3-0.1-0.4-0.1
			s-0.3,0-0.4,0.1s-0.2,0.1-0.3,0.2c-0.1,0.1-0.2,0.2-0.2,0.3c-0.1,0.1-0.1,0.3-0.1,0.4c0,0.1,0,0.3,0.1,0.4
			c0.1,0.1,0.1,0.2,0.2,0.3c0.1,0.1,0.2,0.2,0.3,0.2c0.1,0,0.3,0.1,0.4,0.1s0.3,0,0.4-0.1s0.2-0.1,0.3-0.2c0.1-0.1,0.2-0.2,0.2-0.3
			c0-0.1,0.1-0.3,0.1-0.4C78.5,1.4,78.4,1.3,78.4,1.2z M77.9,1.5c-0.1,0.1-0.1,0.1-0.2,0.1L78,2.2h-0.3l-0.3-0.5h-0.3v0.5H77V0.9
			h0.6c0.1,0,0.1,0,0.2,0s0.1,0,0.1,0.1L78,1.1c0,0,0,0.1,0,0.2C78,1.4,78,1.5,77.9,1.5z M77.7,1.1L77.7,1.1h-0.4v0.4h0.3
			c0.1,0,0.1,0,0.1,0l0.1-0.1C77.8,1.2,77.8,1.2,77.7,1.1z"/>
	</g>
	<g>
		<path class="st0" d="M85.4,2.6v2.3H89v2.4h-3.6v5.1H83V0.2h8.6v2.4H85.4z"/>
		<path class="st0" d="M102.1,11.1c-0.9,1-2.1,1.4-3.6,1.4c-0.7,0-1.4-0.1-2-0.4c-0.6-0.2-1.1-0.6-1.5-1.1s-0.8-1-1-1.7
			S93.6,7.8,93.6,7V0.2H96v6.7c0,1,0.2,1.7,0.7,2.3c0.4,0.6,1,0.8,1.8,0.8s1.4-0.3,1.8-0.8s0.7-1.3,0.7-2.3V0.2h2.4v6.7
			C103.4,8.8,103,10.1,102.1,11.1z"/>
		<path class="st0" d="M115,10.2c-0.2,0.5-0.5,0.9-0.9,1.2s-0.9,0.6-1.5,0.8s-1.3,0.3-2.1,0.3c-1,0-1.9-0.2-2.8-0.6
			s-1.5-0.9-1.9-1.6l1.7-1.6c0.4,0.5,0.9,0.8,1.4,1.1s1.1,0.3,1.7,0.3c0.7,0,1.3-0.1,1.6-0.3s0.5-0.5,0.5-1c0-0.2,0-0.4-0.1-0.5
			s-0.2-0.3-0.4-0.4c-0.2-0.1-0.5-0.2-0.8-0.4c-0.4-0.1-0.8-0.2-1.4-0.4c-0.6-0.1-1.1-0.3-1.5-0.4c-0.5-0.2-0.9-0.4-1.2-0.7
			c-0.3-0.3-0.6-0.6-0.8-1c-0.2-0.4-0.3-0.9-0.3-1.5s0.1-1,0.3-1.5c0.2-0.4,0.5-0.8,0.9-1.1s0.8-0.5,1.4-0.7
			c0.5-0.2,1.1-0.2,1.7-0.2c0.9,0,1.8,0.2,2.5,0.5s1.3,0.8,1.9,1.4l-1.7,1.7c-0.4-0.4-0.8-0.7-1.3-0.9s-0.9-0.3-1.5-0.3
			c-0.3,0-0.6,0-0.8,0.1c-0.2,0.1-0.4,0.1-0.5,0.2S109,3,108.9,3.1s-0.1,0.3-0.1,0.4c0,0.2,0,0.4,0.1,0.5s0.2,0.2,0.4,0.4
			c0.2,0.1,0.4,0.2,0.7,0.3c0.3,0.1,0.7,0.2,1.2,0.3c0.5,0.1,1,0.2,1.4,0.4c0.5,0.2,0.9,0.4,1.3,0.6c0.4,0.3,0.7,0.6,0.9,1.1
			c0.2,0.4,0.4,1,0.4,1.6C115.3,9.2,115.2,9.8,115,10.2z"/>
		<path class="st0" d="M117.9,12.3V0.2h8.4v2.4h-6v2.1h3.5v2.4h-3.5V10h6.2v2.4L117.9,12.3L117.9,12.3z"/>
	</g>
</g>
</svg>
